<mxfile host="app.diagrams.net" modified="2024-06-11T14:46:33.954Z" agent="Mozilla/5.0 (Macintosh; Intel Mac OS X 10_15_7) AppleWebKit/605.1.15 (KHTML, like Gecko) Version/17.1 Safari/605.1.15" etag="V1N6avXCnglElqx7mk3-" version="24.5.2" type="github">
  <diagram name="Page-1" id="l2WPUvjRW5Avm5DFvKfE">
    <mxGraphModel dx="1194" dy="647" grid="1" gridSize="10" guides="1" tooltips="1" connect="1" arrows="1" fold="1" page="1" pageScale="1" pageWidth="827" pageHeight="1169" math="0" shadow="0">
      <root>
        <mxCell id="0" />
        <mxCell id="1" parent="0" />
        <mxCell id="mPMVMwwMDDIuX5QgNMDJ-1" value="government agency" style="shape=umlActor;verticalLabelPosition=bottom;verticalAlign=top;html=1;outlineConnect=0;" parent="1" vertex="1">
          <mxGeometry x="170" y="482.5" width="30" height="60" as="geometry" />
        </mxCell>
        <mxCell id="mPMVMwwMDDIuX5QgNMDJ-2" value="" style="rounded=0;whiteSpace=wrap;html=1;shadow=1;" parent="1" vertex="1">
          <mxGeometry x="240" y="140" width="450" height="700" as="geometry" />
        </mxCell>
        <mxCell id="mPMVMwwMDDIuX5QgNMDJ-3" value="Air Watcher System" style="text;html=1;align=center;verticalAlign=middle;whiteSpace=wrap;rounded=0;" parent="1" vertex="1">
          <mxGeometry x="355.5" y="174" width="200" height="30" as="geometry" />
        </mxCell>
        <mxCell id="mPMVMwwMDDIuX5QgNMDJ-5" value="Provider" style="shape=umlActor;verticalLabelPosition=bottom;verticalAlign=top;html=1;outlineConnect=0;" parent="1" vertex="1">
          <mxGeometry x="170" y="285" width="30" height="60" as="geometry" />
        </mxCell>
        <mxCell id="mPMVMwwMDDIuX5QgNMDJ-10" value="&amp;lt;&amp;lt;actor&amp;gt;&amp;gt;&lt;div&gt;GPS service&lt;/div&gt;" style="rounded=0;whiteSpace=wrap;html=1;" parent="1" vertex="1">
          <mxGeometry x="720" y="370" width="85" height="40" as="geometry" />
        </mxCell>
        <mxCell id="mPMVMwwMDDIuX5QgNMDJ-13" value="&amp;lt;&amp;lt;actor&amp;gt;&amp;gt;&lt;div&gt;central server (CSV files)&lt;/div&gt;" style="rounded=0;whiteSpace=wrap;html=1;" parent="1" vertex="1">
          <mxGeometry x="720" y="180" width="85" height="40" as="geometry" />
        </mxCell>
        <mxCell id="mPMVMwwMDDIuX5QgNMDJ-19" value="" style="edgeStyle=orthogonalEdgeStyle;rounded=0;orthogonalLoop=1;jettySize=auto;html=1;" parent="1" source="mPMVMwwMDDIuX5QgNMDJ-18" target="mPMVMwwMDDIuX5QgNMDJ-13" edge="1">
          <mxGeometry relative="1" as="geometry">
            <Array as="points">
              <mxPoint x="574" y="180" />
              <mxPoint x="763" y="180" />
            </Array>
          </mxGeometry>
        </mxCell>
        <mxCell id="mPMVMwwMDDIuX5QgNMDJ-18" value="to access to the CSV files" style="ellipse;whiteSpace=wrap;html=1;" parent="1" vertex="1">
          <mxGeometry x="494" y="205" width="159" height="40" as="geometry" />
        </mxCell>
        <mxCell id="mPMVMwwMDDIuX5QgNMDJ-34" value="Ask mean of air quality in a determined circular zone" style="ellipse;whiteSpace=wrap;html=1;" parent="1" vertex="1">
          <mxGeometry x="278" y="370" width="355" height="50" as="geometry" />
        </mxCell>
        <mxCell id="mPMVMwwMDDIuX5QgNMDJ-35" value="Ask air quality at a given moment at a precise position" style="ellipse;whiteSpace=wrap;html=1;" parent="1" vertex="1">
          <mxGeometry x="296" y="490" width="370" height="30" as="geometry" />
        </mxCell>
        <mxCell id="mPMVMwwMDDIuX5QgNMDJ-36" value="at a given moment" style="ellipse;whiteSpace=wrap;html=1;" parent="1" vertex="1">
          <mxGeometry x="321.5" y="442.5" width="156" height="35" as="geometry" />
        </mxCell>
        <mxCell id="mPMVMwwMDDIuX5QgNMDJ-37" value="for a specified period of time" style="ellipse;whiteSpace=wrap;html=1;" parent="1" vertex="1">
          <mxGeometry x="481.5" y="440" width="168" height="40" as="geometry" />
        </mxCell>
        <mxCell id="mPMVMwwMDDIuX5QgNMDJ-40" value="" style="endArrow=block;html=1;rounded=0;exitX=0.523;exitY=0.006;exitDx=0;exitDy=0;exitPerimeter=0;entryX=0.513;entryY=0.992;entryDx=0;entryDy=0;entryPerimeter=0;endFill=0;" parent="1" source="mPMVMwwMDDIuX5QgNMDJ-36" target="mPMVMwwMDDIuX5QgNMDJ-34" edge="1">
          <mxGeometry width="50" height="50" relative="1" as="geometry">
            <mxPoint x="375" y="425" as="sourcePoint" />
            <mxPoint x="425" y="375" as="targetPoint" />
          </mxGeometry>
        </mxCell>
        <mxCell id="mPMVMwwMDDIuX5QgNMDJ-41" value="" style="endArrow=block;html=1;rounded=0;entryX=0.552;entryY=0.99;entryDx=0;entryDy=0;entryPerimeter=0;endFill=0;" parent="1" source="mPMVMwwMDDIuX5QgNMDJ-37" target="mPMVMwwMDDIuX5QgNMDJ-34" edge="1">
          <mxGeometry width="50" height="50" relative="1" as="geometry">
            <mxPoint x="330" y="430" as="sourcePoint" />
            <mxPoint x="431" y="374" as="targetPoint" />
          </mxGeometry>
        </mxCell>
        <mxCell id="mPMVMwwMDDIuX5QgNMDJ-42" value="ranking and scoring compare to a selected sensor" style="ellipse;whiteSpace=wrap;html=1;" parent="1" vertex="1">
          <mxGeometry x="273" y="540" width="380" height="50" as="geometry" />
        </mxCell>
        <mxCell id="mPMVMwwMDDIuX5QgNMDJ-45" value="exclude a private individual from trust data" style="ellipse;whiteSpace=wrap;html=1;" parent="1" vertex="1">
          <mxGeometry x="340" y="320" width="250" height="40" as="geometry" />
        </mxCell>
        <mxCell id="mPMVMwwMDDIuX5QgNMDJ-46" value="Measure algorithms performances" style="ellipse;whiteSpace=wrap;html=1;" parent="1" vertex="1">
          <mxGeometry x="525" y="780" width="150" height="40" as="geometry" />
        </mxCell>
        <mxCell id="mPMVMwwMDDIuX5QgNMDJ-48" value="" style="endArrow=classic;html=1;rounded=0;entryX=0.01;entryY=0.37;entryDx=0;entryDy=0;entryPerimeter=0;" parent="1" source="mPMVMwwMDDIuX5QgNMDJ-1" target="mPMVMwwMDDIuX5QgNMDJ-45" edge="1">
          <mxGeometry width="50" height="50" relative="1" as="geometry">
            <mxPoint x="180" y="440" as="sourcePoint" />
            <mxPoint x="230" y="390" as="targetPoint" />
            <Array as="points">
              <mxPoint x="270" y="370" />
            </Array>
          </mxGeometry>
        </mxCell>
        <mxCell id="mPMVMwwMDDIuX5QgNMDJ-49" value="connect" style="ellipse;whiteSpace=wrap;html=1;" parent="1" vertex="1">
          <mxGeometry x="380" y="230" width="110" height="30" as="geometry" />
        </mxCell>
        <mxCell id="mPMVMwwMDDIuX5QgNMDJ-53" value="" style="endArrow=classic;html=1;rounded=0;exitX=0.981;exitY=0.361;exitDx=0;exitDy=0;exitPerimeter=0;entryX=0;entryY=0.5;entryDx=0;entryDy=0;" parent="1" source="mPMVMwwMDDIuX5QgNMDJ-34" target="mPMVMwwMDDIuX5QgNMDJ-10" edge="1">
          <mxGeometry width="50" height="50" relative="1" as="geometry">
            <mxPoint x="590" y="340" as="sourcePoint" />
            <mxPoint x="640" y="290" as="targetPoint" />
          </mxGeometry>
        </mxCell>
        <mxCell id="mPMVMwwMDDIuX5QgNMDJ-54" value="" style="endArrow=classic;html=1;rounded=0;exitX=0.977;exitY=0.317;exitDx=0;exitDy=0;exitPerimeter=0;entryX=0;entryY=1;entryDx=0;entryDy=0;" parent="1" source="mPMVMwwMDDIuX5QgNMDJ-35" target="mPMVMwwMDDIuX5QgNMDJ-10" edge="1">
          <mxGeometry width="50" height="50" relative="1" as="geometry">
            <mxPoint x="650" y="460" as="sourcePoint" />
            <mxPoint x="700" y="410" as="targetPoint" />
          </mxGeometry>
        </mxCell>
        <mxCell id="mPMVMwwMDDIuX5QgNMDJ-55" value="" style="endArrow=classic;html=1;rounded=0;exitX=0.986;exitY=0.356;exitDx=0;exitDy=0;exitPerimeter=0;entryX=0.202;entryY=1.074;entryDx=0;entryDy=0;entryPerimeter=0;" parent="1" source="mPMVMwwMDDIuX5QgNMDJ-42" target="mPMVMwwMDDIuX5QgNMDJ-10" edge="1">
          <mxGeometry width="50" height="50" relative="1" as="geometry">
            <mxPoint x="620" y="482.5" as="sourcePoint" />
            <mxPoint x="744" y="352.5" as="targetPoint" />
          </mxGeometry>
        </mxCell>
        <mxCell id="mPMVMwwMDDIuX5QgNMDJ-56" value="Utilisateur" style="shape=umlActor;verticalLabelPosition=bottom;verticalAlign=top;html=1;outlineConnect=0;" parent="1" vertex="1">
          <mxGeometry x="170" y="190" width="30" height="60" as="geometry" />
        </mxCell>
        <mxCell id="mPMVMwwMDDIuX5QgNMDJ-61" value="" style="curved=1;endArrow=block;html=1;rounded=0;endFill=0;" parent="1" source="mPMVMwwMDDIuX5QgNMDJ-5" target="mPMVMwwMDDIuX5QgNMDJ-56" edge="1">
          <mxGeometry width="50" height="50" relative="1" as="geometry">
            <mxPoint x="80" y="240" as="sourcePoint" />
            <mxPoint x="130" y="190" as="targetPoint" />
            <Array as="points">
              <mxPoint x="150" y="250" />
              <mxPoint x="150" y="220" />
              <mxPoint x="140" y="200" />
            </Array>
          </mxGeometry>
        </mxCell>
        <mxCell id="mPMVMwwMDDIuX5QgNMDJ-63" value="" style="endArrow=classic;html=1;rounded=0;entryX=0;entryY=0.5;entryDx=0;entryDy=0;" parent="1" source="mPMVMwwMDDIuX5QgNMDJ-56" target="mPMVMwwMDDIuX5QgNMDJ-49" edge="1">
          <mxGeometry width="50" height="50" relative="1" as="geometry">
            <mxPoint x="230" y="120" as="sourcePoint" />
            <mxPoint x="280" y="70" as="targetPoint" />
          </mxGeometry>
        </mxCell>
        <mxCell id="CMOTrVaitMfI9DuM7geh-1" value="Private Individual" style="shape=umlActor;verticalLabelPosition=bottom;verticalAlign=top;html=1;outlineConnect=0;" parent="1" vertex="1">
          <mxGeometry x="150" y="670" width="30" height="60" as="geometry" />
        </mxCell>
        <mxCell id="CMOTrVaitMfI9DuM7geh-2" value="" style="curved=1;endArrow=block;html=1;rounded=0;entryX=0;entryY=0.3333333333333333;entryDx=0;entryDy=0;entryPerimeter=0;endFill=0;" parent="1" source="CMOTrVaitMfI9DuM7geh-1" target="mPMVMwwMDDIuX5QgNMDJ-56" edge="1">
          <mxGeometry width="50" height="50" relative="1" as="geometry">
            <mxPoint x="80" y="510" as="sourcePoint" />
            <mxPoint x="130" y="460" as="targetPoint" />
            <Array as="points">
              <mxPoint x="130" y="510" />
              <mxPoint x="100" y="400" />
              <mxPoint x="110" y="140" />
            </Array>
          </mxGeometry>
        </mxCell>
        <mxCell id="7C0dqBKwXJuHddxGU4Rj-1" value="See fidelity points" style="ellipse;whiteSpace=wrap;html=1;" parent="1" vertex="1">
          <mxGeometry x="269" y="790" width="199" height="35" as="geometry" />
        </mxCell>
        <mxCell id="7C0dqBKwXJuHddxGU4Rj-2" style="edgeStyle=none;curved=1;rounded=0;orthogonalLoop=1;jettySize=auto;html=1;entryX=0.038;entryY=0.686;entryDx=0;entryDy=0;entryPerimeter=0;fontSize=12;startSize=8;endSize=8;" parent="1" source="CMOTrVaitMfI9DuM7geh-1" target="7C0dqBKwXJuHddxGU4Rj-1" edge="1">
          <mxGeometry relative="1" as="geometry" />
        </mxCell>
        <mxCell id="zV7D3eGCMYDxvo4wQJPu-1" value="" style="endArrow=classic;html=1;rounded=0;" parent="1" source="mPMVMwwMDDIuX5QgNMDJ-1" target="mPMVMwwMDDIuX5QgNMDJ-42" edge="1">
          <mxGeometry width="50" height="50" relative="1" as="geometry">
            <mxPoint x="380" y="490" as="sourcePoint" />
            <mxPoint x="430" y="440" as="targetPoint" />
          </mxGeometry>
        </mxCell>
        <mxCell id="zV7D3eGCMYDxvo4wQJPu-2" value="" style="endArrow=classic;html=1;rounded=0;" parent="1" source="mPMVMwwMDDIuX5QgNMDJ-1" target="mPMVMwwMDDIuX5QgNMDJ-35" edge="1">
          <mxGeometry width="50" height="50" relative="1" as="geometry">
            <mxPoint x="210" y="450.3320344449462" as="sourcePoint" />
            <mxPoint x="350.03" y="430" as="targetPoint" />
          </mxGeometry>
        </mxCell>
        <mxCell id="zV7D3eGCMYDxvo4wQJPu-3" value="" style="endArrow=classic;html=1;rounded=0;" parent="1" source="mPMVMwwMDDIuX5QgNMDJ-1" target="mPMVMwwMDDIuX5QgNMDJ-34" edge="1">
          <mxGeometry width="50" height="50" relative="1" as="geometry">
            <mxPoint x="380" y="420" as="sourcePoint" />
            <mxPoint x="430" y="370" as="targetPoint" />
            <Array as="points">
              <mxPoint x="300" y="420" />
            </Array>
          </mxGeometry>
        </mxCell>
        <mxCell id="zV7D3eGCMYDxvo4wQJPu-4" value="Ask mean of air quality around his sensors" style="ellipse;whiteSpace=wrap;html=1;" parent="1" vertex="1">
          <mxGeometry x="292" y="740" width="357" height="30" as="geometry" />
        </mxCell>
        <mxCell id="zV7D3eGCMYDxvo4wQJPu-5" value="" style="endArrow=classic;html=1;rounded=0;" parent="1" source="CMOTrVaitMfI9DuM7geh-1" target="zV7D3eGCMYDxvo4wQJPu-4" edge="1">
          <mxGeometry width="50" height="50" relative="1" as="geometry">
            <mxPoint x="380" y="460" as="sourcePoint" />
            <mxPoint x="430" y="410" as="targetPoint" />
            <Array as="points" />
          </mxGeometry>
        </mxCell>
        <mxCell id="zV7D3eGCMYDxvo4wQJPu-6" value="ask for private individual&#39;s sensors informations" style="ellipse;whiteSpace=wrap;html=1;" parent="1" vertex="1">
          <mxGeometry x="273" y="660" width="169" height="50" as="geometry" />
        </mxCell>
        <mxCell id="zV7D3eGCMYDxvo4wQJPu-8" value="" style="curved=1;endArrow=block;html=1;rounded=0;entryX=0;entryY=0.3333333333333333;entryDx=0;entryDy=0;entryPerimeter=0;endFill=0;" parent="1" source="mPMVMwwMDDIuX5QgNMDJ-1" target="mPMVMwwMDDIuX5QgNMDJ-56" edge="1">
          <mxGeometry width="50" height="50" relative="1" as="geometry">
            <mxPoint x="100" y="380" as="sourcePoint" />
            <mxPoint x="150" y="330" as="targetPoint" />
            <Array as="points">
              <mxPoint x="150" y="380" />
              <mxPoint x="120" y="330" />
              <mxPoint x="130" y="180" />
            </Array>
          </mxGeometry>
        </mxCell>
        <mxCell id="GTV8dw9vjoJJsqa4DkPT-1" value="Analyze the efficiency of an air cleaner" style="ellipse;whiteSpace=wrap;html=1;" parent="1" vertex="1">
          <mxGeometry x="332.75" y="280" width="296.5" height="30" as="geometry" />
        </mxCell>
        <mxCell id="GTV8dw9vjoJJsqa4DkPT-4" value="Identify a malicious personal user" style="ellipse;whiteSpace=wrap;html=1;" parent="1" vertex="1">
          <mxGeometry x="294.5" y="600" width="355" height="35" as="geometry" />
        </mxCell>
        <mxCell id="GTV8dw9vjoJJsqa4DkPT-5" value="" style="endArrow=classic;html=1;rounded=0;entryX=0;entryY=0.5;entryDx=0;entryDy=0;" parent="1" source="mPMVMwwMDDIuX5QgNMDJ-1" target="GTV8dw9vjoJJsqa4DkPT-4" edge="1">
          <mxGeometry width="50" height="50" relative="1" as="geometry">
            <mxPoint x="193" y="500" as="sourcePoint" />
            <mxPoint x="308" y="340" as="targetPoint" />
            <Array as="points">
              <mxPoint x="260" y="560" />
            </Array>
          </mxGeometry>
        </mxCell>
        <mxCell id="GTV8dw9vjoJJsqa4DkPT-6" value="" style="endArrow=classic;html=1;rounded=0;entryX=0;entryY=0.5;entryDx=0;entryDy=0;exitX=1;exitY=0.3333333333333333;exitDx=0;exitDy=0;exitPerimeter=0;" parent="1" source="mPMVMwwMDDIuX5QgNMDJ-5" target="GTV8dw9vjoJJsqa4DkPT-1" edge="1">
          <mxGeometry width="50" height="50" relative="1" as="geometry">
            <mxPoint x="203" y="499" as="sourcePoint" />
            <mxPoint x="305" y="358" as="targetPoint" />
            <Array as="points" />
          </mxGeometry>
        </mxCell>
        <mxCell id="chwVuFcQbsSjT6xxbUko-1" value="ask for around sensors informations" style="ellipse;whiteSpace=wrap;html=1;" vertex="1" parent="1">
          <mxGeometry x="460.25" y="660" width="169" height="50" as="geometry" />
        </mxCell>
        <mxCell id="chwVuFcQbsSjT6xxbUko-8" value="&quot;includes&quot;" style="html=1;verticalAlign=bottom;endArrow=open;dashed=1;endSize=8;curved=0;rounded=0;" edge="1" parent="1" source="zV7D3eGCMYDxvo4wQJPu-6" target="GTV8dw9vjoJJsqa4DkPT-4">
          <mxGeometry relative="1" as="geometry">
            <mxPoint x="600" y="540" as="sourcePoint" />
            <mxPoint x="520" y="540" as="targetPoint" />
          </mxGeometry>
        </mxCell>
        <mxCell id="chwVuFcQbsSjT6xxbUko-9" value="&quot;includes&quot;" style="html=1;verticalAlign=bottom;endArrow=open;dashed=1;endSize=8;curved=0;rounded=0;exitX=0.584;exitY=0.04;exitDx=0;exitDy=0;exitPerimeter=0;" edge="1" parent="1" source="chwVuFcQbsSjT6xxbUko-1" target="GTV8dw9vjoJJsqa4DkPT-4">
          <mxGeometry relative="1" as="geometry">
            <mxPoint x="610" y="550" as="sourcePoint" />
            <mxPoint x="530" y="550" as="targetPoint" />
          </mxGeometry>
        </mxCell>
      </root>
    </mxGraphModel>
  </diagram>
</mxfile>
